<svg viewBox="0 0 113 25" fill="none" xmlns="http://www.w3.org/2000/svg">
<path d="M11.4333 0H6.87214V17.3932C6.87214 19.4609 6.7201 20.0691 5.71664 20.0691C4.71319 20.0691 4.56115 19.4609 4.56115 17.3932V15.8728H0V17.6973C0 22.5929 2.03731 24.6302 5.71664 24.6302C9.39597 24.6302 11.4333 22.5929 11.4333 17.6973V0Z" fill="#ffffff"/>
<path d="M23.7935 21.407V10.5819C23.7935 6.29439 22.0907 4.25707 18.1073 4.25707C14.1239 4.25707 12.3602 6.29439 12.3602 10.5819V11.19H16.9214V10.5819C16.9214 9.1223 17.2255 8.51415 18.1073 8.51415C18.9283 8.51415 19.2324 8.81822 19.2324 9.94331C19.202 13.1665 12.0562 12.4976 12.0562 19.4913C12.0562 23.0794 13.8502 24.6302 15.8875 24.6302C17.6208 24.6302 18.533 23.8396 19.2324 22.1064C19.2324 22.6537 19.3844 23.87 20.1446 24.3261H24.0976C23.7935 23.3531 23.7935 22.6841 23.7935 21.407ZM19.2324 19.613C18.9283 19.9778 18.5026 20.3731 17.8944 20.3731C17.1343 20.3731 16.6173 19.8562 16.6173 18.6703C16.6173 16.8154 18.2897 16.2073 19.2324 14.8389V19.613Z" fill="#ffffff"/>
<path d="M39.2411 4.25707C37.4471 4.25707 36.1091 5.59501 35.5922 6.93295C35.2273 5.1389 34.4063 4.25707 32.6731 4.25707C30.8182 4.25707 29.7539 5.68624 29.2674 6.78091V4.56115H24.7062V24.3261H29.2674V10.2778C29.2674 8.81822 29.6627 8.51415 30.2708 8.51415C30.879 8.51415 31.2743 8.81822 31.2743 10.2778V24.3261H35.8355V10.5819V10.2778C35.8355 8.81822 36.2308 8.51415 36.8389 8.51415C37.4471 8.51415 37.8424 8.81822 37.8424 10.2778V24.3261H42.4035V10.5819C42.4035 6.29439 41.8866 4.25707 39.2411 4.25707Z" fill="#ffffff"/>
<path d="M50.6307 12.8016C48.2589 11.0684 47.5595 10.7035 47.5595 9.66964C47.5595 9.1223 47.8028 8.51415 48.5022 8.51415C49.2015 8.51415 49.5664 9.1223 49.5664 10.8859H54.1276C54.1276 6.59847 52.3335 4.25707 48.5022 4.25707C44.6708 4.25707 42.9984 6.59847 42.9984 9.66964C42.9984 12.8929 44.914 14.1396 46.7993 15.4471C49.5664 17.3628 49.8705 18.0013 49.8705 18.9136C49.8705 19.765 49.6881 20.3731 48.8366 20.3731C47.9852 20.3731 47.5595 19.765 47.5595 17.3932H42.9984C42.9984 22.897 44.8532 24.6302 48.8366 24.6302C52.82 24.6302 54.4317 22.2888 54.4317 18.9136C54.4317 15.8424 52.9417 14.5045 50.6307 12.8016Z" fill="#ffffff"/>
<path d="M55.0545 17.6973C55.0545 22.5929 57.0918 24.6302 60.7712 24.6302C64.4505 24.6302 66.4878 22.5929 66.4878 17.6973V11.19C66.4878 6.29439 64.4505 4.25707 60.7712 4.25707C57.0918 4.25707 55.0545 6.29439 55.0545 11.19V17.6973ZM59.6157 17.6973V11.19C59.6157 9.1223 59.7677 8.51415 60.7712 8.51415C61.7442 8.51415 61.9267 9.1223 61.9267 11.19V17.6973C61.9267 19.765 61.7746 20.3731 60.7712 20.3731C59.7677 20.3731 59.6157 19.765 59.6157 17.6973Z" fill="#ffffff"/>
<path d="M73.9828 12.3151H78.544V11.19C78.544 6.29439 76.5067 4.25707 72.8273 4.25707C69.148 4.25707 67.1107 6.29439 67.1107 11.19V17.6973C67.1107 22.5929 69.148 24.6302 72.8273 24.6302C76.5067 24.6302 78.544 22.5929 78.544 17.6973V16.5722H73.9828V17.6973C73.9828 19.765 73.8308 20.3731 72.8273 20.3731C71.8239 20.3731 71.6719 19.765 71.6719 17.6973V11.19C71.6719 9.1223 71.8239 8.51415 72.8273 8.51415C73.8004 8.51415 73.9828 9.1223 73.9828 11.19V12.3151Z" fill="#ffffff"/>
<path d="M79.1669 0V24.3261H83.728V0H79.1669Z" fill="#ffffff"/>
<path d="M112.001 8.81823V4.56115H107.136C108.748 4.16585 109.265 2.06772 109.265 0H104.704C104.734 1.88528 104.369 4.04422 102.575 4.56115V8.81823H104.399V17.6973C104.399 22.5929 105.22 24.3261 109.508 24.3261H112.001V20.0691H110.724C109.569 20.0691 108.961 19.765 108.961 17.6973V8.81823H112.001Z" fill="#ffffff"/>
<path fill-rule="evenodd" clip-rule="evenodd" d="M86.525 4.5614H91.2382L88.2278 14.4439L91.2382 24.3264H86.525L83.6971 14.4439L86.525 4.5614ZM101.08 4.5614H100.928H96.3664H91.8053V9.12255H97.7558L98.6821 12.1634H91.8053V16.7246H98.6821L97.7558 19.7654H91.8053V24.3266H100.928V24.3264H101.08L103.908 14.4439L101.08 4.5614Z" fill="#62B4FF"/>
</svg>
