<svg width="588" height="172" viewBox="0 0 588 172" fill="none" xmlns="http://www.w3.org/2000/svg">
<mask id="path-1-outside-1_9_15" maskUnits="userSpaceOnUse" x="11.8889" y="16.6667" width="560" height="142" fill="black">
<rect fill="white" x="11.8889" y="16.6667" width="560" height="142"/>
<path d="M78.5146 28.6667H56.7224V111.767C56.7224 121.647 55.996 124.552 51.2017 124.552C46.4075 124.552 45.6811 121.647 45.6811 111.767V104.503H23.8889V113.22C23.8889 136.611 33.6227 146.344 51.2017 146.344C68.7808 146.344 78.5146 136.611 78.5146 113.22V28.6667Z"/>
<path d="M137.569 130.945V79.2245C137.569 58.7398 129.433 49.006 110.402 49.006C91.3697 49.006 82.9434 58.7398 82.9434 79.2245V82.1301H104.736V79.2245C104.736 72.251 106.188 69.3454 110.402 69.3454C114.324 69.3454 115.777 70.7982 115.777 76.1736C115.632 91.5734 81.4906 88.3772 81.4906 121.792C81.4906 138.935 90.0622 146.344 99.796 146.344C108.077 146.344 112.435 142.567 115.777 134.286C115.777 136.901 116.503 142.712 120.135 144.892H139.022C137.569 140.243 137.569 137.046 137.569 130.945ZM115.777 122.373C114.324 124.116 112.29 126.005 109.385 126.005C105.753 126.005 103.283 123.535 103.283 117.869C103.283 109.007 111.273 106.101 115.777 99.5638V122.373Z"/>
<path d="M211.374 49.006C202.803 49.006 196.41 55.3984 193.94 61.7908C192.197 53.2192 188.275 49.006 179.993 49.006C171.131 49.006 166.046 55.8342 163.722 61.0643V50.4588H141.93V144.892H163.722V77.7717C163.722 70.7982 165.611 69.3454 168.516 69.3454C171.422 69.3454 173.311 70.7982 173.311 77.7717V144.892H195.103V77.7717C195.103 70.7982 196.991 69.3454 199.897 69.3454C202.803 69.3454 204.691 70.7982 204.691 77.7717V144.892H226.483V79.2245C226.483 58.7398 224.014 49.006 211.374 49.006Z"/>
<path d="M265.791 89.83C254.459 81.549 251.118 79.8056 251.118 74.866C251.118 72.251 252.28 69.3454 255.621 69.3454C258.963 69.3454 260.706 72.251 260.706 80.6773H282.498C282.498 60.1927 273.927 49.006 255.621 49.006C237.316 49.006 229.326 60.1927 229.326 74.866C229.326 90.2658 238.478 96.2224 247.486 102.469C260.706 111.622 262.159 114.673 262.159 119.032C262.159 123.099 261.287 126.005 257.219 126.005C253.152 126.005 251.118 123.099 251.118 111.767H229.326C229.326 138.063 238.188 146.344 257.219 146.344C276.251 146.344 283.951 135.158 283.951 119.032C283.951 104.358 276.832 97.9658 265.791 89.83Z"/>
<path d="M286.927 113.22C286.927 136.611 296.661 146.344 314.24 146.344C331.819 146.344 341.553 136.611 341.553 113.22V82.1301C341.553 58.7398 331.819 49.006 314.24 49.006C296.661 49.006 286.927 58.7398 286.927 82.1301V113.22ZM308.719 113.22V82.1301C308.719 72.251 309.446 69.3454 314.24 69.3454C318.889 69.3454 319.761 72.251 319.761 82.1301V113.22C319.761 123.099 319.034 126.005 314.24 126.005C309.446 126.005 308.719 123.099 308.719 113.22Z"/>
<path d="M377.362 87.5055H399.155V82.1301C399.155 58.7398 389.421 49.006 371.842 49.006C354.263 49.006 344.529 58.7398 344.529 82.1301V113.22C344.529 136.611 354.263 146.344 371.842 146.344C389.421 146.344 399.155 136.611 399.155 113.22V107.845H377.362V113.22C377.362 123.099 376.636 126.005 371.842 126.005C367.047 126.005 366.321 123.099 366.321 113.22V82.1301C366.321 72.251 367.047 69.3454 371.842 69.3454C376.491 69.3454 377.362 72.251 377.362 82.1301V87.5055Z"/>
<path d="M402.131 28.6667V144.892H423.923V28.6667H402.131Z"/>
<path d="M559.007 70.7982V50.4588H535.762C543.462 48.5702 545.931 38.5458 545.931 28.6667H524.139C524.284 37.6741 522.541 47.989 513.969 50.4588V70.7982H522.686V113.22C522.686 136.611 526.609 144.892 547.094 144.892H559.007V124.552H552.905C547.384 124.552 544.478 123.099 544.478 113.22V70.7982H559.007Z"/>
<path d="M437.286 50.46H459.804L445.422 97.6764L459.804 144.893H437.286L423.775 97.6764L437.286 50.46Z"/>
<path d="M506.825 50.46H462.514V72.2522H490.944L495.37 86.7808H462.514V108.573H495.37L490.944 123.102H462.514V144.894H506.098L506.825 144.893L520.336 97.6764L506.825 50.46Z"/>
</mask>
<path d="M78.5146 28.6667H56.7224V111.767C56.7224 121.647 55.996 124.552 51.2017 124.552C46.4075 124.552 45.6811 121.647 45.6811 111.767V104.503H23.8889V113.22C23.8889 136.611 33.6227 146.344 51.2017 146.344C68.7808 146.344 78.5146 136.611 78.5146 113.22V28.6667Z" fill="#F5F4F4"/>
<path d="M137.569 130.945V79.2245C137.569 58.7398 129.433 49.006 110.402 49.006C91.3697 49.006 82.9434 58.7398 82.9434 79.2245V82.1301H104.736V79.2245C104.736 72.251 106.188 69.3454 110.402 69.3454C114.324 69.3454 115.777 70.7982 115.777 76.1736C115.632 91.5734 81.4906 88.3772 81.4906 121.792C81.4906 138.935 90.0622 146.344 99.796 146.344C108.077 146.344 112.435 142.567 115.777 134.286C115.777 136.901 116.503 142.712 120.135 144.892H139.022C137.569 140.243 137.569 137.046 137.569 130.945ZM115.777 122.373C114.324 124.116 112.29 126.005 109.385 126.005C105.753 126.005 103.283 123.535 103.283 117.869C103.283 109.007 111.273 106.101 115.777 99.5638V122.373Z" fill="#F5F4F4"/>
<path d="M211.374 49.006C202.803 49.006 196.41 55.3984 193.94 61.7908C192.197 53.2192 188.275 49.006 179.993 49.006C171.131 49.006 166.046 55.8342 163.722 61.0643V50.4588H141.93V144.892H163.722V77.7717C163.722 70.7982 165.611 69.3454 168.516 69.3454C171.422 69.3454 173.311 70.7982 173.311 77.7717V144.892H195.103V77.7717C195.103 70.7982 196.991 69.3454 199.897 69.3454C202.803 69.3454 204.691 70.7982 204.691 77.7717V144.892H226.483V79.2245C226.483 58.7398 224.014 49.006 211.374 49.006Z" fill="#F5F4F4"/>
<path d="M265.791 89.83C254.459 81.549 251.118 79.8056 251.118 74.866C251.118 72.251 252.28 69.3454 255.621 69.3454C258.963 69.3454 260.706 72.251 260.706 80.6773H282.498C282.498 60.1927 273.927 49.006 255.621 49.006C237.316 49.006 229.326 60.1927 229.326 74.866C229.326 90.2658 238.478 96.2224 247.486 102.469C260.706 111.622 262.159 114.673 262.159 119.032C262.159 123.099 261.287 126.005 257.219 126.005C253.152 126.005 251.118 123.099 251.118 111.767H229.326C229.326 138.063 238.188 146.344 257.219 146.344C276.251 146.344 283.951 135.158 283.951 119.032C283.951 104.358 276.832 97.9658 265.791 89.83Z" fill="#F5F4F4"/>
<path d="M286.927 113.22C286.927 136.611 296.661 146.344 314.24 146.344C331.819 146.344 341.553 136.611 341.553 113.22V82.1301C341.553 58.7398 331.819 49.006 314.24 49.006C296.661 49.006 286.927 58.7398 286.927 82.1301V113.22ZM308.719 113.22V82.1301C308.719 72.251 309.446 69.3454 314.24 69.3454C318.889 69.3454 319.761 72.251 319.761 82.1301V113.22C319.761 123.099 319.034 126.005 314.24 126.005C309.446 126.005 308.719 123.099 308.719 113.22Z" fill="#F5F4F4"/>
<path d="M377.362 87.5055H399.155V82.1301C399.155 58.7398 389.421 49.006 371.842 49.006C354.263 49.006 344.529 58.7398 344.529 82.1301V113.22C344.529 136.611 354.263 146.344 371.842 146.344C389.421 146.344 399.155 136.611 399.155 113.22V107.845H377.362V113.22C377.362 123.099 376.636 126.005 371.842 126.005C367.047 126.005 366.321 123.099 366.321 113.22V82.1301C366.321 72.251 367.047 69.3454 371.842 69.3454C376.491 69.3454 377.362 72.251 377.362 82.1301V87.5055Z" fill="#F5F4F4"/>
<path d="M402.131 28.6667V144.892H423.923V28.6667H402.131Z" fill="#F5F4F4"/>
<path d="M559.007 70.7982V50.4588H535.762C543.462 48.5702 545.931 38.5458 545.931 28.6667H524.139C524.284 37.6741 522.541 47.989 513.969 50.4588V70.7982H522.686V113.22C522.686 136.611 526.609 144.892 547.094 144.892H559.007V124.552H552.905C547.384 124.552 544.478 123.099 544.478 113.22V70.7982H559.007Z" fill="#F5F4F4"/>
<path d="M437.286 50.46H459.804L445.422 97.6764L459.804 144.893H437.286L423.775 97.6764L437.286 50.46Z" fill="#62B4FF"/>
<path d="M506.825 50.46H462.514V72.2522H490.944L495.37 86.7808H462.514V108.573H495.37L490.944 123.102H462.514V144.894H506.098L506.825 144.893L520.336 97.6764L506.825 50.46Z" fill="#62B4FF"/>
<path d="M78.5146 28.6667H56.7224V111.767C56.7224 121.647 55.996 124.552 51.2017 124.552C46.4075 124.552 45.6811 121.647 45.6811 111.767V104.503H23.8889V113.22C23.8889 136.611 33.6227 146.344 51.2017 146.344C68.7808 146.344 78.5146 136.611 78.5146 113.22V28.6667Z" stroke="#212830" stroke-width="23.8889" stroke-miterlimit="1.66241" stroke-linejoin="round" mask="url(#path-1-outside-1_9_15)"/>
<path d="M137.569 130.945V79.2245C137.569 58.7398 129.433 49.006 110.402 49.006C91.3697 49.006 82.9434 58.7398 82.9434 79.2245V82.1301H104.736V79.2245C104.736 72.251 106.188 69.3454 110.402 69.3454C114.324 69.3454 115.777 70.7982 115.777 76.1736C115.632 91.5734 81.4906 88.3772 81.4906 121.792C81.4906 138.935 90.0622 146.344 99.796 146.344C108.077 146.344 112.435 142.567 115.777 134.286C115.777 136.901 116.503 142.712 120.135 144.892H139.022C137.569 140.243 137.569 137.046 137.569 130.945ZM115.777 122.373C114.324 124.116 112.29 126.005 109.385 126.005C105.753 126.005 103.283 123.535 103.283 117.869C103.283 109.007 111.273 106.101 115.777 99.5638V122.373Z" stroke="#212830" stroke-width="23.8889" stroke-miterlimit="1.66241" stroke-linejoin="round" mask="url(#path-1-outside-1_9_15)"/>
<path d="M211.374 49.006C202.803 49.006 196.41 55.3984 193.94 61.7908C192.197 53.2192 188.275 49.006 179.993 49.006C171.131 49.006 166.046 55.8342 163.722 61.0643V50.4588H141.93V144.892H163.722V77.7717C163.722 70.7982 165.611 69.3454 168.516 69.3454C171.422 69.3454 173.311 70.7982 173.311 77.7717V144.892H195.103V77.7717C195.103 70.7982 196.991 69.3454 199.897 69.3454C202.803 69.3454 204.691 70.7982 204.691 77.7717V144.892H226.483V79.2245C226.483 58.7398 224.014 49.006 211.374 49.006Z" stroke="#212830" stroke-width="23.8889" stroke-miterlimit="1.66241" stroke-linejoin="round" mask="url(#path-1-outside-1_9_15)"/>
<path d="M265.791 89.83C254.459 81.549 251.118 79.8056 251.118 74.866C251.118 72.251 252.28 69.3454 255.621 69.3454C258.963 69.3454 260.706 72.251 260.706 80.6773H282.498C282.498 60.1927 273.927 49.006 255.621 49.006C237.316 49.006 229.326 60.1927 229.326 74.866C229.326 90.2658 238.478 96.2224 247.486 102.469C260.706 111.622 262.159 114.673 262.159 119.032C262.159 123.099 261.287 126.005 257.219 126.005C253.152 126.005 251.118 123.099 251.118 111.767H229.326C229.326 138.063 238.188 146.344 257.219 146.344C276.251 146.344 283.951 135.158 283.951 119.032C283.951 104.358 276.832 97.9658 265.791 89.83Z" stroke="#212830" stroke-width="23.8889" stroke-miterlimit="1.66241" stroke-linejoin="round" mask="url(#path-1-outside-1_9_15)"/>
<path d="M286.927 113.22C286.927 136.611 296.661 146.344 314.24 146.344C331.819 146.344 341.553 136.611 341.553 113.22V82.1301C341.553 58.7398 331.819 49.006 314.24 49.006C296.661 49.006 286.927 58.7398 286.927 82.1301V113.22ZM308.719 113.22V82.1301C308.719 72.251 309.446 69.3454 314.24 69.3454C318.889 69.3454 319.761 72.251 319.761 82.1301V113.22C319.761 123.099 319.034 126.005 314.24 126.005C309.446 126.005 308.719 123.099 308.719 113.22Z" stroke="#212830" stroke-width="23.8889" stroke-miterlimit="1.66241" stroke-linejoin="round" mask="url(#path-1-outside-1_9_15)"/>
<path d="M377.362 87.5055H399.155V82.1301C399.155 58.7398 389.421 49.006 371.842 49.006C354.263 49.006 344.529 58.7398 344.529 82.1301V113.22C344.529 136.611 354.263 146.344 371.842 146.344C389.421 146.344 399.155 136.611 399.155 113.22V107.845H377.362V113.22C377.362 123.099 376.636 126.005 371.842 126.005C367.047 126.005 366.321 123.099 366.321 113.22V82.1301C366.321 72.251 367.047 69.3454 371.842 69.3454C376.491 69.3454 377.362 72.251 377.362 82.1301V87.5055Z" stroke="#212830" stroke-width="23.8889" stroke-miterlimit="1.66241" stroke-linejoin="round" mask="url(#path-1-outside-1_9_15)"/>
<path d="M402.131 28.6667V144.892H423.923V28.6667H402.131Z" stroke="#212830" stroke-width="23.8889" stroke-miterlimit="1.66241" stroke-linejoin="round" mask="url(#path-1-outside-1_9_15)"/>
<path d="M559.007 70.7982V50.4588H535.762C543.462 48.5702 545.931 38.5458 545.931 28.6667H524.139C524.284 37.6741 522.541 47.989 513.969 50.4588V70.7982H522.686V113.22C522.686 136.611 526.609 144.892 547.094 144.892H559.007V124.552H552.905C547.384 124.552 544.478 123.099 544.478 113.22V70.7982H559.007Z" stroke="#212830" stroke-width="23.8889" stroke-miterlimit="1.66241" stroke-linejoin="round" mask="url(#path-1-outside-1_9_15)"/>
<path d="M437.286 50.46H459.804L445.422 97.6764L459.804 144.893H437.286L423.775 97.6764L437.286 50.46Z" stroke="#212830" stroke-width="23.8889" stroke-miterlimit="1.66241" stroke-linejoin="round" mask="url(#path-1-outside-1_9_15)"/>
<path d="M506.825 50.46H462.514V72.2522H490.944L495.37 86.7808H462.514V108.573H495.37L490.944 123.102H462.514V144.894H506.098L506.825 144.893L520.336 97.6764L506.825 50.46Z" stroke="#212830" stroke-width="23.8889" stroke-miterlimit="1.66241" stroke-linejoin="round" mask="url(#path-1-outside-1_9_15)"/>
</svg>
